<svg height="512" viewBox="0 0 512 512" width="512" xmlns="http://www.w3.org/2000/svg"><path d="m256 24-232 88v71.334a316.046 316.046 0 0 0 232 304.666 316.047 316.047 0 0 0 232-304.666v-71.334z" fill="#69b9e7"/><path d="m440 216-32 24h-336v-48l48-16h40l72-48h112l72 48 24 8z" fill="#f85542"/><circle cx="360" cy="240" fill="#ebebeb" r="32"/><path d="m359.922 280.012a40.108 40.108 0 1 1 8.418-.891 40.3 40.3 0 0 1 -8.418.891zm.125-64.02a24.155 24.155 0 0 0 -5.051.535 23.885 23.885 0 1 0 5.051-.535z" fill="#62666a"/><path d="m266 240 20.4-27.2a8 8 0 0 0 1.6-4.8v-32h-16v29.332l-26 34.668z" fill="#de4c3b"/><path d="m72 200h24v16h-24z" fill="#ff9201"/><path d="m416 200h24v16h-24z" fill="#ff9201"/><path d="m112 304h48v88h-48z" fill="#ebebeb"/><path d="m40 280v2.537a316.378 316.378 0 0 0 62.74 109.463h9.26v-88h-32z" fill="#3e8cc7"/><path d="m256 464a7.991 7.991 0 0 1 -3.578-.844l-48-24 7.156-14.312 44.422 22.211 44.422-22.211 7.156 14.312-48 24a7.991 7.991 0 0 1 -3.578.844z" fill="#4298d1"/><path d="m293.027 87.43-37.027-14.813-37.027 14.813-5.946-14.86 40-16a8.058 8.058 0 0 1 5.946 0l40 16z" fill="#4298d1"/><circle cx="144" cy="240" fill="#ebebeb" r="32"/><path d="m144 280a40 40 0 1 1 40-40 40.047 40.047 0 0 1 -40 40zm0-64a24 24 0 1 0 24 24 24.027 24.027 0 0 0 -24-24z" fill="#62666a"/><path d="m369.44 332.586a21 21 0 0 0 -24.171-7.062l-49.269 18.476h-8a16 16 0 0 0 0-32h-16l-24-24h-56l-32 16v88l126.847 7.461a31.99 31.99 0 0 0 17.2-3.852l58.653-31.989a21 21 0 0 0 6.74-31.034z" fill="#fec9a3"/><path d="m248 344-24-16h-25.438v8h23.016l21.985 14.656a8 8 0 0 0 4.437 1.344h30.461a10.776 10.776 0 0 0 10.419-8z" fill="#f7bb8f"/><path d="m392 160-48 16h-184l72-48h112z" fill="#ebebeb"/><path d="m296 128h16v48h-16z" fill="#d9d9d9"/></svg>