<svg id="Capa_1" enable-background="new 0 0 491.002 491.002" height="512" viewBox="0 0 491.002 491.002" width="512" xmlns="http://www.w3.org/2000/svg"><path d="m384.066 94.745c-4.057 0-7.395-3.238-7.494-7.316-.332-13.537-1.226-27.265-2.658-40.802-.606-5.782-5.262-10.278-11.07-10.696-46.972-3.375-94.608-3.374-141.581 0-5.808.418-10.464 4.913-11.069 10.689-1.433 13.549-2.327 27.276-2.659 40.809-.101 4.141-3.561 7.421-7.681 7.314-4.141-.102-7.416-3.541-7.314-7.682.341-13.935 1.262-28.07 2.736-42.012 1.364-13.01 11.841-23.14 24.911-24.08 47.688-3.426 96.046-3.426 143.732 0 13.07.94 23.547 11.07 24.912 24.086 1.473 13.932 2.394 28.067 2.735 42.006.102 4.141-3.173 7.58-7.314 7.682-.061.002-.124.002-.186.002z" fill="#da4a54"/><path d="m428.583 84.917c-91.019-6.549-182.039-6.549-273.058 0-18.019 1.297-32.558 15.322-34.457 33.287-7.27 68.783-7.27 137.566 0 206.348 1.899 17.966 16.437 31.991 34.457 33.287 91.019 6.549 182.039 6.549 273.058 0 18.019-1.297 32.558-15.322 34.457-33.287 7.27-68.783 7.27-137.566 0-206.348-1.899-17.965-16.438-31.99-34.457-33.287z" fill="#eeebee"/><path d="m164.019 358.434c-2.83-.2-5.66-.4-8.49-.6-18.02-1.29-32.56-15.32-34.46-33.28-7.27-68.79-7.27-137.57 0-206.35 1.9-17.97 16.44-31.99 34.46-33.29 2.83-.2 5.67-.4 8.5-.6-10.96 5.91-18.76 16.96-20.14 30-7.55 71.37-7.55 142.75 0 214.12 1.38 13.051 9.17 24.091 20.13 30z" fill="#d3ced5"/><path d="m360.638 195.528h-42.733v-42.734h-51.702v42.734h-42.733v51.702h42.733v42.733h51.702v-42.733h42.733z" fill="#da4a54"/><path d="m479.056 333.628h-.009l-128.995 103.472c-10.601 8.505-24.203 12.378-37.703 10.73l-173.857-21.159-46.324 17.135c-24.884-25.591-14.658-107.936-14.658-107.936l11.032-3.019c-.957-14.741 5.995-29.379 18.899-37.754 1.423-.932 2.915-1.777 4.485-2.545l74.551-36.409 38.341-18.726c2.088-1.018 4.218-1.82 6.383-2.407 16.026-4.39 33.424 2.657 41.627 17.769 9.307 17.156 3.442 38.599-13.301 48.631l-61.975 37.142 104.292 18.165c12.55 2.182 25.463-.457 36.158-7.401l103.722-67.331c13.913-9.04 32.424-5.9 42.593 7.22 2.631 3.398 4.477 7.168 5.555 11.084 3.261 11.904-.595 25.136-10.816 33.339z" fill="#f1d0a5"/><path d="m312.065 420.039c-71.422 9.277-120.661-32.605-150.451-72.008-14.771-19.538-9.791-47.483 10.83-60.701 71.921-46.102 90.524-44.408 100.383-34.549-8.203-15.112-25.601-22.159-41.627-17.769-2.165.587-4.296 1.389-6.383 2.407l-38.341 18.726-60.425 29.51s-.006.01-.007.012l-14.118 6.887c-15.759 7.694-24.445 23.927-23.384 40.299l-46.019 10.663s24.761 74.701 49.646 100.293l46.324-17.135 173.857 21.156c13.499 1.647 27.102-2.225 37.703-10.73l128.995-103.472c-44.577-12.093-118.878 79.053-166.983 86.411z" fill="#f1b986"/><path d="m232.237 299.437c-6.142 0-12.102-2.981-15.74-8.414-7.9-11.797-12.31-29.342-12.494-30.083-.998-4.02 1.453-8.088 5.473-9.085 4.022-.997 8.088 1.453 9.085 5.473.084.335 4.014 15.813 10.399 25.348 1.12 1.672 3.418 2.225 5.233 1.257l9.297-4.958c3.653-1.948 8.199-.567 10.147 3.088 1.949 3.655.566 8.198-3.088 10.147l-9.297 4.958c-2.874 1.535-5.967 2.269-9.015 2.269z" fill="#f1b986"/><path d="m62.081 325.507c-22.315 2.723-43.009 10.036-62.081 21.937 12.465 42.523 27.207 84.241 44.225 125.155 22.315-2.723 43.009-10.036 62.081-21.937-12.465-42.523-27.207-84.241-44.225-125.155z" fill="#80a6c6"/><path d="m106.306 450.662c-19.07 11.91-39.76 19.22-62.08 21.94-4.43-10.66-8.7-21.37-12.82-32.13 23.25-2.87 44.84-10.42 64.77-22.66 3.53 10.9 6.91 21.85 10.13 32.85z" fill="#5b8eb8"/><path d="m65.455 446.924c-4.115 0-7.908-2.638-9.36-6.482-1.454-3.849-.331-8.333 2.766-11.044 3.185-2.788 7.925-3.253 11.591-1.137 3.66 2.113 5.642 6.462 4.803 10.613-.932 4.61-5.082 8.05-9.8 8.05z" fill="#eeebee"/></svg>